<svg width="24" height="24" viewBox="0 0 24 24" fill="none" xmlns="http://www.w3.org/2000/svg">
<path d="M7.98192 0.650207C10.5748 -0.239936 13.3943 -0.215454 15.9713 0.719582C17.3865 1.24948 18.6832 2.05361 19.7869 3.08583C19.4119 3.48708 19.0163 3.86208 18.6338 4.25208C17.9063 4.97833 17.1794 5.70208 16.4532 6.42333C15.7292 5.73085 14.8534 5.21719 13.8957 4.92333C12.6701 4.55328 11.3663 4.52795 10.1273 4.8501C8.88833 5.17225 7.762 5.82945 6.87192 6.74958C6.09498 7.53996 5.50659 8.49561 5.15067 9.54521L1.26379 6.53583C2.65506 3.77688 5.06395 1.6665 7.98192 0.650207Z" fill="#E33629"/>
<path d="M0.232495 9.51708C0.441256 8.48165 0.788105 7.47894 1.26374 6.53583L5.15062 9.5527C4.64229 11.0501 4.64229 12.6734 5.15062 14.1708C3.85562 15.1708 2.55999 16.1758 1.26374 17.1858C0.0734021 14.8164 -0.289632 12.1168 0.232495 9.51708Z" fill="#F8BD00"/>
<path d="M11.8594 9.63898H23.0194C23.4009 11.7332 23.2976 13.8871 22.7175 15.9352C22.1835 17.8186 21.1464 19.5209 19.7175 20.859C18.4631 19.8802 17.2031 18.909 15.9487 17.9302C16.5706 17.5108 17.1014 16.97 17.5093 16.3405C17.9172 15.7109 18.1938 15.0055 18.3225 14.2665H11.8594C11.8575 12.7252 11.8594 11.1821 11.8594 9.63898Z" fill="#587DBD"/>
<path d="M1.26184 17.1858C2.55809 16.1858 3.85372 15.1808 5.14872 14.1708C5.64973 15.6412 6.6026 16.9156 7.87122 17.8121C8.66237 18.3715 9.56152 18.7598 10.5112 18.9521C11.4469 19.1261 12.4067 19.1261 13.3425 18.9521C14.2755 18.7944 15.1652 18.4431 15.9543 17.9208C17.2087 18.8996 18.4687 19.8708 19.7231 20.8496C18.3504 22.0978 16.677 22.9681 14.8668 23.3752C12.8689 23.8449 10.7867 23.8224 8.79934 23.3096C7.22753 22.8899 5.75936 22.1501 4.48684 21.1365C3.14008 20.067 2.04003 18.7194 1.26184 17.1858Z" fill="#319F43"/>
</svg>
