<?xml version="1.0" encoding="utf-8"?>
<!-- Generator: Adobe Illustrator 23.0.3, SVG Export Plug-In . SVG Version: 6.00 Build 0)  -->
<svg version="1.1" id="Layer_1" xmlns="http://www.w3.org/2000/svg" xmlns:xlink="http://www.w3.org/1999/xlink" x="0px" y="0px"
	 viewBox="0 0 180 55" style="enable-background:new 0 0 180 55;" xml:space="preserve">
<style type="text/css">
	.st0{fill:#C4426E;}
	.st1{fill:#0171B4;}
</style>
<g>
	<g>
		<rect x="83.5" y="9" class="st0" width="6.7" height="38.2"/>
	</g>
	<g>
		<path class="st0" d="M0.7,8V1.1h19.4V8h-6.3v38.8H7.1V8H0.7z"/>
	</g>
	<g>
		<path class="st0" d="M22.7,1.1h15.4V8h-8.6v12h6.2v7.3h-6.2v12.6h8.6v6.9H22.7V1.1z"/>
	</g>
	<g>
		<path class="st0" d="M48.5,1.1v16h0.2l0.3-0.7l5.6-15.2h6.5l-6.2,15l7,30.6h-6.5l-4.7-19.9L50.7,26h-0.2l-0.4,0.9l-1.6,3.7v16.2
			h-6.7V1.1H48.5z"/>
	</g>
	<path class="st1" d="M65.1,1.1h6.7v47.8h107.4v6.2H65.1V1.1z"/>
	<g>
		<path class="st0" d="M83.5,0.8h6.7v4.9h-6.7V0.8z"/>
	</g>
	<g>
		<path class="st0" d="M114.6,8h-9.3v12h6.2v6.9h-6.2v19.9h-6.7V1.1h16V8z"/>
	</g>
	<g>
		<path class="st0" d="M118,8V1.1h19.4V8H131v38.8h-6.7V8H118z"/>
	</g>
	<g>
		<path class="st0" d="M140,1.1h15.4V8h-8.6v12h6.2v7.3h-6.2v12.6h8.6v6.9H140V1.1z"/>
	</g>
	<g>
		<path class="st0" d="M165.8,1.1v16h0.2l0.3-0.7l5.6-15.2h6.5l-6.2,15l7,30.6h-6.5l-4.7-19.9l-0.2-0.9h-0.2l-0.4,0.9l-1.6,3.7v16.2
			h-6.7V1.1H165.8z"/>
	</g>
</g>
</svg>
