<svg width="16" height="16" viewBox="0 0 16 16" fill="none" xmlns="http://www.w3.org/2000/svg">
<path d="M7.99996 11.3333C7.64634 11.3333 7.3072 11.1929 7.05715 10.9428C6.8071 10.6928 6.66663 10.3536 6.66663 10C6.66663 9.26 7.25996 8.66667 7.99996 8.66667C8.35358 8.66667 8.69272 8.80715 8.94277 9.0572C9.19282 9.30725 9.33329 9.64638 9.33329 10C9.33329 10.3536 9.19282 10.6928 8.94277 10.9428C8.69272 11.1929 8.35358 11.3333 7.99996 11.3333ZM12 13.3333V6.66667H3.99996V13.3333H12ZM12 5.33334C12.3536 5.33334 12.6927 5.47381 12.9428 5.72386C13.1928 5.97391 13.3333 6.31305 13.3333 6.66667V13.3333C13.3333 13.687 13.1928 14.0261 12.9428 14.2761C12.6927 14.5262 12.3536 14.6667 12 14.6667H3.99996C3.64634 14.6667 3.3072 14.5262 3.05715 14.2761C2.8071 14.0261 2.66663 13.687 2.66663 13.3333V6.66667C2.66663 5.92667 3.25996 5.33334 3.99996 5.33334H4.66663V4.00001C4.66663 3.11595 5.01782 2.2681 5.64294 1.64298C6.26806 1.01786 7.1159 0.666672 7.99996 0.666672C8.4377 0.666672 8.87115 0.752891 9.27557 0.920407C9.67999 1.08792 10.0475 1.33345 10.357 1.64298C10.6665 1.95251 10.912 2.31997 11.0796 2.72439C11.2471 3.12881 11.3333 3.56227 11.3333 4.00001V5.33334H12ZM7.99996 2.00001C7.46953 2.00001 6.96082 2.21072 6.58575 2.58579C6.21067 2.96086 5.99996 3.46957 5.99996 4.00001V5.33334H9.99996V4.00001C9.99996 3.46957 9.78925 2.96086 9.41417 2.58579C9.0391 2.21072 8.53039 2.00001 7.99996 2.00001Z" fill="black"/>
</svg>
