<svg width="16" height="16" viewBox="0 0 16 16" fill="none" xmlns="http://www.w3.org/2000/svg">
<path d="M15.9093 15.0264C14.7389 12.9222 12.9352 11.4134 10.8303 10.6982C11.8715 10.0536 12.6804 9.07145 13.1329 7.90253C13.5854 6.73361 13.6563 5.44255 13.3349 4.22763C13.0135 3.01271 12.3174 1.9411 11.3537 1.17736C10.3899 0.413628 9.2117 0 8 0C6.7883 0 5.6101 0.413628 4.64633 1.17736C3.68257 1.9411 2.98653 3.01271 2.6651 4.22763C2.34368 5.44255 2.41464 6.73361 2.8671 7.90253C3.31955 9.07145 4.12848 10.0536 5.16965 10.6982C3.06476 11.4126 1.26112 12.9214 0.0907097 15.0264C0.0477887 15.0992 0.0193195 15.1802 0.00698187 15.2646C-0.00535579 15.349 -0.00131202 15.4351 0.0188746 15.5179C0.0390612 15.6006 0.0749818 15.6783 0.124517 15.7464C0.174052 15.8145 0.236198 15.8716 0.307289 15.9143C0.37838 15.957 0.456975 15.9844 0.538437 15.9951C0.6199 16.0057 0.702579 15.9992 0.781598 15.976C0.860616 15.9529 0.934373 15.9135 0.998516 15.8602C1.06266 15.8069 1.11589 15.7408 1.15507 15.6658C2.6029 13.0637 5.16197 11.5101 8 11.5101C10.838 11.5101 13.3971 13.0637 14.8449 15.6658C14.8841 15.7408 14.9373 15.8069 15.0015 15.8602C15.0656 15.9135 15.1394 15.9529 15.2184 15.976C15.2974 15.9992 15.3801 16.0057 15.4616 15.9951C15.543 15.9844 15.6216 15.957 15.6927 15.9143C15.7638 15.8716 15.8259 15.8145 15.8755 15.7464C15.925 15.6783 15.9609 15.6006 15.9811 15.5179C16.0013 15.4351 16.0054 15.349 15.993 15.2646C15.9807 15.1802 15.9522 15.0992 15.9093 15.0264ZM3.69646 5.75614C3.69646 4.87101 3.94886 4.00576 4.42174 3.2698C4.89462 2.53383 5.56674 1.96022 6.35311 1.6215C7.13948 1.28277 8.00478 1.19414 8.83958 1.36683C9.67438 1.53951 10.4412 1.96574 11.0431 2.59162C11.6449 3.2175 12.0548 4.01493 12.2208 4.88305C12.3869 5.75118 12.3017 6.65102 11.976 7.46877C11.6502 8.28653 11.0986 8.98547 10.3909 9.47723C9.6832 9.96898 8.85116 10.2315 8 10.2315C6.85901 10.2302 5.76509 9.75827 4.95829 8.91926C4.15148 8.08026 3.69768 6.94268 3.69646 5.75614Z" fill="black"/>
</svg>
